<svg class="dicon styles__fallbackElement___Fl-e7  styles__dull___cV3u9" preserveAspectRatio="xMidYMid meet" viewBox="0 0 36 26" xmlns="http://www.w3.org/2000/svg">
	<path d="M35.2114674,9.90088871 C34.4018592,9.33913616 32.5465072,9.12847895 31.0959592,9.40935523 C30.9272908,8.00497385 30.1514163,6.77614015 28.8020694,5.68774458 L28.0261949,5.12599203 L27.4864561,5.93351132 C26.8117826,6.98679735 26.4744459,8.4613978 26.5756469,9.86577918 C26.6093806,10.3573127 26.778049,11.235051 27.2840541,12.0074608 C26.8117826,12.2883371 25.8335061,12.6394324 24.5516265,12.6394324 L0.16218026,12.6394324 L0.0947129121,12.9203087 C-0.141422805,14.32469 -0.141422805,18.7133819 2.62473845,22.0838972 C4.71622623,24.6468932 7.81972423,25.9459459 11.9014988,25.9459459 C20.7397213,25.9459459 27.2840541,21.6976923 30.3538184,14.0087042 C31.5682306,14.0438138 34.1657235,14.0087042 35.4813368,11.3754892 C35.5150705,11.3052701 35.5825378,11.1648319 35.8186736,10.6381889 L35.9536082,10.3573127 L35.2114674,9.90088871 L35.2114674,9.90088871 Z M19.6602438,0 L15.9495396,0 L15.9495396,3.51095344 L19.6602438,3.51095344 L19.6602438,0 L19.6602438,0 Z M19.6602438,4.21314413 L15.9495396,4.21314413 L15.9495396,7.72409758 L19.6602438,7.72409758 L19.6602438,4.21314413 L19.6602438,4.21314413 Z M15.2748662,4.21314413 L11.564162,4.21314413 L11.564162,7.72409758 L15.2748662,7.72409758 L15.2748662,4.21314413 L15.2748662,4.21314413 Z M10.8894886,4.21314413 L7.17878443,4.21314413 L7.17878443,7.72409758 L10.8894886,7.72409758 L10.8894886,4.21314413 L10.8894886,4.21314413 Z M6.50411095,8.42628826 L2.79340682,8.42628826 L2.79340682,11.9372417 L6.50411095,11.9372417 L6.50411095,8.42628826 L6.50411095,8.42628826 Z M10.8894886,8.42628826 L7.17878443,8.42628826 L7.17878443,11.9372417 L10.8894886,11.9372417 L10.8894886,8.42628826 L10.8894886,8.42628826 Z M15.2748662,8.42628826 L11.564162,8.42628826 L11.564162,11.9372417 L15.2748662,11.9372417 L15.2748662,8.42628826 L15.2748662,8.42628826 Z M19.6602438,8.42628826 L15.9495396,8.42628826 L15.9495396,11.9372417 L19.6602438,11.9372417 L19.6602438,8.42628826 L19.6602438,8.42628826 Z M24.0456214,8.42628826 L20.3349172,8.42628826 L20.3349172,11.9372417 L24.0456214,11.9372417 L24.0456214,8.42628826 L24.0456214,8.42628826 Z"/>
</svg>
